# xmcd
#
# Track frame offsets:
#	150
#	16475
#	30530
#	44231
#	63273
#	78959
#	91992
#	108413
#	121951
#	137435
#	155475
#	168856
#
# Disc length: 2449 seconds
# Revision: 0
# Processed by: cddbd v1.5.2PL0 Copyright (c) Steve Scherf et al.
# Submitted via: dBpowerAMP V12.0
#
DISCID=92098f0c
DTITLE=Benn Gunn -  Keep On Drivin
DYEAR=2011
DGENRE=Country
TTITLE0=Who I Am
TTITLE1=Laughter and Beers
TTITLE2=Every Minute I Wait
TTITLE3=If It Hadn't Been For Love
TTITLE4=Mobile Phones
TTITLE5=Golden Mile
TTITLE6=Rawsonville Road
TTITLE7=Last Stop
TTITLE8=I Like Girls That Drink Beer
TTITLE9=Been Round Too Long
TTITLE10=You're My Vice
TTITLE11=Keep On Drivin
EXTD=
EXTT0=
EXTT1=
EXTT2=
EXTT3=
EXTT4=
EXTT5=
EXTT6=
EXTT7=
EXTT8=
EXTT9=
EXTT10=
EXTT11=
PLAYORDER=
